<svg width="111" height="31" viewBox="0 0 111 31" fill="none" xmlns="http://www.w3.org/2000/svg">
<path d="M37.02 31C37.007 30.669 37 30.335 37 30V25C37 18.3696 39.6339 12.0108 44.3223 7.32239C49.0107 2.63398 55.3696 0 62 0H110C110.335 0 110.669 0.00701953 111 0.0200195V6C111 9.28305 110.353 12.534 109.097 15.5671C107.841 18.6003 105.999 21.3561 103.678 23.6776C101.356 25.9991 98.6002 27.8407 95.5671 29.097C92.5339 30.3534 89.283 31 86 31H37.02Z" fill="#0077FF"/>
<path d="M74.066 16.355H72.616V13.365H69.326V16.355H67.876V8.99498H69.326V11.965H72.616V8.99498H74.066V16.355ZM75.5119 12.685C75.5119 12.0183 75.6786 11.395 76.0119 10.815C76.3519 10.235 76.8086 9.77498 77.3819 9.43498C77.9619 9.08831 78.5886 8.91498 79.2619 8.91498C79.9353 8.91498 80.5586 9.08831 81.1319 9.43498C81.7119 9.77498 82.1719 10.235 82.5119 10.815C82.8586 11.395 83.0319 12.0183 83.0319 12.685C83.0319 13.365 82.8586 13.9916 82.5119 14.565C82.1719 15.1383 81.7119 15.595 81.1319 15.935C80.5586 16.2683 79.9353 16.435 79.2619 16.435C78.5819 16.435 77.9553 16.2683 77.3819 15.935C76.8086 15.595 76.3519 15.1383 76.0119 14.565C75.6786 13.9916 75.5119 13.365 75.5119 12.685ZM77.0119 12.685C77.0119 13.1116 77.1119 13.505 77.3119 13.865C77.5186 14.225 77.7953 14.5116 78.1419 14.725C78.4953 14.9316 78.8853 15.035 79.3119 15.035C79.7253 15.035 80.1019 14.9316 80.4419 14.725C80.7819 14.5116 81.0486 14.2283 81.2419 13.875C81.4353 13.515 81.5319 13.1183 81.5319 12.685C81.5319 12.245 81.4319 11.845 81.2319 11.485C81.0319 11.125 80.7586 10.8416 80.4119 10.635C80.0719 10.4216 79.6919 10.315 79.2719 10.315C78.8519 10.315 78.4686 10.4216 78.1219 10.635C77.7819 10.8416 77.5119 11.125 77.3119 11.485C77.1119 11.845 77.0119 12.245 77.0119 12.685ZM88.6837 8.99498V10.395H86.8937V16.355H85.4437V10.395H83.7237V8.99498H88.6837Z" fill="#FFFEC8"/>
<path d="M0.0200043 31C0.00700427 30.669 0 30.335 0 30V25C0 18.3696 2.63392 12.0108 7.32233 7.32239C12.0107 2.63398 18.3696 0 25 0H58C58.335 0 58.669 0.00701953 59 0.0200195V7C59 13.3652 56.4714 19.4697 51.9706 23.9706C47.4697 28.4715 41.3652 31 35 31H0.0200043Z" fill="#E76300"/>
<path d="M21.506 8.99498V16.655H21.466L16.316 12.005L16.346 16.355H14.876V8.70498H14.936L20.076 13.425L20.046 8.99498H21.506ZM28.4214 8.99498V10.395H24.8514V11.965H28.0114V13.365H24.8514V14.955H28.5614V16.355H23.4014V8.99498H28.4214ZM36.1815 16.675L34.4315 12.315L32.3915 16.695L29.4315 9.04498H31.1315L32.5815 13.305L33.7015 10.495L33.1215 9.04498H34.5615L36.2115 13.135L37.4615 9.04498H39.0215L36.1815 16.675Z" fill="#FFFEC8"/>
</svg>
