<svg width="59" height="31" viewBox="0 0 59 31" fill="none" xmlns="http://www.w3.org/2000/svg">
<path d="M0.0200195 31C0.00701953 30.669 0 30.335 0 30V25C0 18.3696 2.63392 12.0108 7.32233 7.32239C12.0107 2.63398 18.3696 0 25 0H58C58.335 0 58.669 0.00701953 59 0.0200195V7C59 13.3652 56.4715 19.4697 51.9706 23.9706C47.4697 28.4715 41.3652 31 35 31H0.0200195Z" fill="#0077FF"/>
<path d="M21.506 8.99498V16.655H21.466L16.316 12.005L16.346 16.355H14.876V8.70498H14.936L20.076 13.425L20.046 8.99498H21.506ZM28.4214 8.99498V10.395H24.8514V11.965H28.0114V13.365H24.8514V14.955H28.5614V16.355H23.4014V8.99498H28.4214ZM36.1816 16.675L34.4316 12.315L32.3916 16.695L29.4316 9.04498H31.1316L32.5816 13.305L33.7016 10.495L33.1216 9.04498H34.5616L36.2116 13.135L37.4616 9.04498H39.0216L36.1816 16.675Z" fill="#FFFEC8"/>
</svg>
