<svg width="59" height="31" viewBox="0 0 59 31" fill="none" xmlns="http://www.w3.org/2000/svg">
<path d="M0.0200195 31C0.00701953 30.669 0 30.335 0 30V25C0 18.3696 2.63398 12.0108 7.32239 7.32239C12.0108 2.63398 18.3696 0 25 0H58C58.335 0 58.668 0.00701953 59 0.0200195V7C59 13.3652 56.4715 19.4697 51.9706 23.9706C47.4697 28.4715 41.3652 31 35 31H0.0200195Z" fill="#0077FF"/>
<path d="M17.346 13.455V14.675H15.466V13.455H17.346ZM23.3127 14.955V16.355H18.5227C18.8827 15.995 19.0627 15.815 19.0627 15.815C19.6893 15.175 20.1727 14.6616 20.5127 14.275C20.8593 13.8883 21.146 13.4983 21.3727 13.105C21.606 12.705 21.7227 12.325 21.7227 11.965C21.7227 11.685 21.6293 11.4616 21.4427 11.295C21.256 11.1283 21.0093 11.045 20.7027 11.045C20.4093 11.045 20.176 11.1216 20.0027 11.275C19.8293 11.4283 19.7427 11.6016 19.7427 11.795C19.7427 12.1883 19.8727 12.5216 20.1327 12.795L19.2427 13.605C19.0627 13.5183 18.9027 13.3683 18.7627 13.155C18.6227 12.9416 18.516 12.7116 18.4427 12.465C18.3693 12.2183 18.3327 12.0083 18.3327 11.835C18.3327 11.4616 18.436 11.1083 18.6427 10.775C18.8493 10.435 19.1493 10.1616 19.5427 9.95498C19.9427 9.74831 20.4127 9.64498 20.9527 9.64498C21.3927 9.64498 21.786 9.74831 22.1327 9.95498C22.4793 10.155 22.7493 10.425 22.9427 10.765C23.136 11.105 23.2327 11.465 23.2327 11.845C23.2327 12.1983 23.1627 12.545 23.0227 12.885C22.8893 13.225 22.716 13.5483 22.5027 13.855C22.296 14.155 22.0193 14.5216 21.6727 14.955H23.3127ZM26.3027 11.855C26.7494 11.855 27.1394 11.9583 27.4727 12.165C27.8061 12.365 28.0594 12.635 28.2327 12.975C28.4061 13.315 28.4927 13.6883 28.4927 14.095C28.4927 14.5283 28.3927 14.925 28.1927 15.285C27.9927 15.6383 27.7194 15.9183 27.3727 16.125C27.0261 16.3316 26.6461 16.435 26.2327 16.435C25.8461 16.435 25.4661 16.365 25.0927 16.225C24.7194 16.0783 24.4261 15.8983 24.2127 15.685L24.9627 14.525C25.0827 14.6716 25.2527 14.795 25.4727 14.895C25.6994 14.9883 25.9161 15.035 26.1227 15.035C26.3694 15.035 26.5761 14.9583 26.7427 14.805C26.9094 14.645 26.9927 14.425 26.9927 14.145C26.9927 13.825 26.8994 13.5683 26.7127 13.375C26.5261 13.175 26.2727 13.075 25.9527 13.075C25.7461 13.075 25.5494 13.105 25.3627 13.165C25.1761 13.2183 24.9561 13.3116 24.7027 13.445H24.6927V9.72498H28.0027V11.125H25.9427V11.875C26.0227 11.8616 26.1427 11.855 26.3027 11.855ZM30.9485 13.415C30.4152 13.415 30.0119 13.2416 29.7385 12.895C29.4719 12.5416 29.3385 12.0816 29.3385 11.515C29.3385 10.9483 29.4719 10.4916 29.7385 10.145C30.0119 9.79831 30.4152 9.62498 30.9485 9.62498C31.4752 9.62498 31.8752 9.80165 32.1485 10.155C32.4219 10.5016 32.5585 10.955 32.5585 11.515C32.5585 12.0816 32.4219 12.5416 32.1485 12.895C31.8752 13.2416 31.4752 13.415 30.9485 13.415ZM31.4085 16.375L30.0385 16.355L34.8785 9.62498H36.2685L31.4085 16.375ZM30.5585 11.515C30.5585 11.815 30.5852 12.045 30.6385 12.205C30.6985 12.3583 30.8019 12.435 30.9485 12.435C31.0952 12.435 31.1952 12.3583 31.2485 12.205C31.3019 12.045 31.3285 11.815 31.3285 11.515C31.3285 11.1883 31.3019 10.9583 31.2485 10.825C31.1952 10.685 31.0952 10.615 30.9485 10.615C30.7952 10.615 30.6919 10.685 30.6385 10.825C30.5852 10.9583 30.5585 11.1883 30.5585 11.515ZM35.1285 16.635C34.5952 16.635 34.1919 16.4616 33.9185 16.115C33.6519 15.7616 33.5185 15.3016 33.5185 14.735C33.5185 14.1683 33.6519 13.7116 33.9185 13.365C34.1919 13.0183 34.5952 12.845 35.1285 12.845C35.6552 12.845 36.0552 13.0216 36.3285 13.375C36.6019 13.7216 36.7385 14.175 36.7385 14.735C36.7385 15.3016 36.6019 15.7616 36.3285 16.115C36.0552 16.4616 35.6552 16.635 35.1285 16.635ZM34.7385 14.735C34.7385 15.035 34.7652 15.265 34.8185 15.425C34.8785 15.5783 34.9819 15.655 35.1285 15.655C35.2752 15.655 35.3752 15.5783 35.4285 15.425C35.4819 15.265 35.5085 15.035 35.5085 14.735C35.5085 14.4083 35.4819 14.1783 35.4285 14.045C35.3752 13.905 35.2752 13.835 35.1285 13.835C34.9752 13.835 34.8719 13.905 34.8185 14.045C34.7652 14.1783 34.7385 14.4083 34.7385 14.735Z" fill="#FFFEC8"/>
</svg>
